<?xml version="1.0" encoding="utf-8"?>
<svg xmlns="http://www.w3.org/2000/svg" viewBox="334.3049 354.2654 355.3901 315.4692" width="355.39px" height="315.469px" preserveAspectRatio="none"><g transform="matrix(15.968356132507324, 0, 0, 15.968356132507324, 334.304931640625, 354.265380859375)" style="" id="object-0"><title>checkmarks</title><rect height="19.7559" opacity="0" width="22.2559" x="0" y="0" style="fill: rgb(255, 255, 255);"/><path d="M11.3867 16.3281L21.0938 16.3281C21.5332 16.3281 21.8945 15.9863 21.8945 15.5469C21.8945 15.0977 21.5332 14.7559 21.0938 14.7559L11.3867 14.7559C10.9375 14.7559 10.5957 15.0977 10.5957 15.5469C10.5957 15.9863 10.9375 16.3281 11.3867 16.3281Z" fill-opacity="0.85" style="fill: rgb(255, 255, 255);"/><path d="M4.20898 19.7559C6.50391 19.7559 8.41797 17.8418 8.41797 15.5469C8.41797 13.2324 6.50391 11.3281 4.20898 11.3281C1.9043 11.3281 0 13.2422 0 15.5469C0 17.8418 1.91406 19.7559 4.20898 19.7559ZM4.20898 18.3301C2.69531 18.3301 1.42578 17.0508 1.42578 15.5469C1.42578 14.0332 2.70508 12.7539 4.20898 12.7539C5.71289 12.7539 6.99219 14.0332 6.99219 15.5469C6.99219 17.0508 5.71289 18.3301 4.20898 18.3301Z" fill-opacity="0.85" style="fill: rgb(255, 255, 255);"/><path d="M11.3867 5.03906L21.0938 5.03906C21.5332 5.03906 21.8945 4.6875 21.8945 4.24805C21.8945 3.80859 21.5332 3.4668 21.0938 3.4668L11.3867 3.4668C10.9375 3.4668 10.5957 3.80859 10.5957 4.24805C10.5957 4.6875 10.9375 5.03906 11.3867 5.03906Z" fill-opacity="0.85" style="fill: rgb(255, 255, 255);"/><path d="M4.20898 8.45703C6.50391 8.45703 8.41797 6.5332 8.41797 4.23828C8.41797 1.93359 6.50391 0.0292969 4.20898 0.0292969C1.9043 0.0292969 0 1.93359 0 4.23828C0 6.5332 1.91406 8.45703 4.20898 8.45703ZM3.71094 6.50391C3.50586 6.50391 3.36914 6.39648 3.22266 6.23047L2.12891 4.91211C2.04102 4.79492 2.00195 4.6875 2.00195 4.53125C2.00195 4.24805 2.2168 4.02344 2.48047 4.02344C2.66602 4.02344 2.80273 4.10156 2.92969 4.26758L3.69141 5.23438L5.42969 2.44141C5.54688 2.26562 5.69336 2.16797 5.86914 2.16797C6.14258 2.16797 6.37695 2.38281 6.37695 2.62695C6.37695 2.76367 6.33789 2.88086 6.25 3.02734L4.20898 6.23047C4.10156 6.40625 3.92578 6.50391 3.71094 6.50391Z" fill-opacity="0.85" style="fill: rgb(255, 255, 255);"/></g></svg>